HIERARCHY
ROOT hip
{
  OFFSET 0 0 0
  CHANNELS 6 Xposition Yposition Zposition Zrotation Yrotation Xrotation
  JOINT abdomen
  {
    OFFSET 0 20.6881 -0.73152
    CHANNELS 3 Zrotation Xrotation Yrotation
    JOINT chest
    {
      OFFSET 0 11.7043 -0.48768
      CHANNELS 3 Zrotation Xrotation Yrotation
      JOINT neck
      {
        OFFSET 0 22.1894 -2.19456
        CHANNELS 3 Zrotation Xrotation Yrotation
        JOINT head
        {
          OFFSET -0.24384 7.07133 1.2192
          CHANNELS 3 Zrotation Xrotation Yrotation
          JOINT leftEye
          {
            OFFSET 4.14528 8.04674 8.04672
            CHANNELS 3 Zrotation Xrotation Yrotation
            End Site
            {
              OFFSET 1 0 0
            }
          }
          JOINT rightEye
          {
            OFFSET -3.6576 8.04674 8.04672
            CHANNELS 3 Zrotation Xrotation Yrotation
            End Site
            {
              OFFSET 1 0 0
            }
          }
        }
      }
      JOINT rCollar
      {
        OFFSET -2.68224 19.2634 -4.8768
        CHANNELS 3 Zrotation Xrotation Yrotation
        JOINT rShldr
        {
          OFFSET -8.77824 -1.95073 1.46304
          CHANNELS 3 Zrotation Xrotation Yrotation
          JOINT rForeArm
          {
            OFFSET -28.1742 -1.7115 0.48768
            CHANNELS 3 Zrotation Xrotation Yrotation
            JOINT rHand
            {
              OFFSET -22.5879 0.773209 7.07136
              CHANNELS 3 Zrotation Xrotation Yrotation
              JOINT rThumb1
              {
                OFFSET -1.2192 -0.487915 3.41376
                CHANNELS 3 Zrotation Xrotation Yrotation
                JOINT rThumb2
                {
                  OFFSET -3.37035 -0.52449 3.41376
                  CHANNELS 3 Zrotation Xrotation Yrotation
                  End Site
                  {
                    OFFSET -1.78271 -1.18214 1.43049
                  }
                }
              }
              JOINT rIndex1
              {
                OFFSET -7.75947 0.938293 5.60832
                CHANNELS 3 Zrotation Xrotation Yrotation
                JOINT rIndex2
                {
                  OFFSET -2.54057 -0.884171 1.56538
                  CHANNELS 3 Zrotation Xrotation Yrotation
                  End Site
                  {
                    OFFSET -1.62519 -0.234802 1.16502
                  }
                }
              }
              JOINT rMid1
              {
                OFFSET -8.24714 1.18213 3.41376
                CHANNELS 3 Zrotation Xrotation Yrotation
                JOINT rMid2
                {
                  OFFSET -3.10165 -0.590103 1.0647
                  CHANNELS 3 Zrotation Xrotation Yrotation
                  End Site
                  {
                    OFFSET -2.48547 -0.328903 0.83742
                  }
                }
              }
              JOINT rRing1
              {
                OFFSET -8.82822 0.546677 1.51678
                CHANNELS 3 Zrotation Xrotation Yrotation
                JOINT rRing2
                {
                  OFFSET -2.60934 -0.819778 -0.0198488
                  CHANNELS 3 Zrotation Xrotation Yrotation
                  End Site
                  {
                    OFFSET -2.33842 -0.294052 0.168128
                  }
                }
              }
              JOINT rPinky1
              {
                OFFSET -8.27202 -0.0477905 -0.4584
                CHANNELS 3 Zrotation Xrotation Yrotation
                JOINT rPinky2
                {
                  OFFSET -1.82734 -0.647385 -0.700984
                  CHANNELS 3 Zrotation Xrotation Yrotation
                  End Site
                  {
                    OFFSET -1.69225 -0.51767 -0.607171
                  }
                }
              }
            }
          }
        }
      }
      JOINT lCollar
      {
        OFFSET 2.68224 19.2634 -4.8768
        CHANNELS 3 Zrotation Xrotation Yrotation
        JOINT lShldr
        {
          OFFSET 8.77824 -1.95073 1.46304
          CHANNELS 3 Zrotation Xrotation Yrotation
          JOINT lForeArm
          {
            OFFSET 28.1742 -1.7115 0.48768
            CHANNELS 3 Zrotation Xrotation Yrotation
            JOINT lHand
            {
              OFFSET 22.5879 0.773209 7.07136
              CHANNELS 3 Zrotation Xrotation Yrotation
              JOINT lThumb1
              {
                OFFSET 1.2192 -0.487915 3.41376
                CHANNELS 3 Zrotation Xrotation Yrotation
                JOINT lThumb2
                {
                  OFFSET 3.37035 -0.52449 3.41376
                  CHANNELS 3 Zrotation Xrotation Yrotation
                  End Site
                  {
                    OFFSET 1.78271 -1.18214 1.43049
                  }
                }
              }
              JOINT lIndex1
              {
                OFFSET 7.75947 0.938293 5.60832
                CHANNELS 3 Zrotation Xrotation Yrotation
                JOINT lIndex2
                {
                  OFFSET 2.54057 -0.884171 1.56538
                  CHANNELS 3 Zrotation Xrotation Yrotation
                  End Site
                  {
                    OFFSET 1.62519 -0.234802 1.16502
                  }
                }
              }
              JOINT lMid1
              {
                OFFSET 8.24714 1.18213 3.41376
                CHANNELS 3 Zrotation Xrotation Yrotation
                JOINT lMid2
                {
                  OFFSET 3.10165 -0.590103 1.0647
                  CHANNELS 3 Zrotation Xrotation Yrotation
                  End Site
                  {
                    OFFSET 2.48547 -0.328903 0.83742
                  }
                }
              }
              JOINT lRing1
              {
                OFFSET 8.82822 0.546677 1.51678
                CHANNELS 3 Zrotation Xrotation Yrotation
                JOINT lRing2
                {
                  OFFSET 2.60934 -0.819778 -0.0198488
                  CHANNELS 3 Zrotation Xrotation Yrotation
                  End Site
                  {
                    OFFSET 2.33842 -0.294052 0.168128
                  }
                }
              }
              JOINT lPinky1
              {
                OFFSET 8.27202 -0.0477905 -0.4584
                CHANNELS 3 Zrotation Xrotation Yrotation
                JOINT lPinky2
                {
                  OFFSET 1.82734 -0.647385 -0.700984
                  CHANNELS 3 Zrotation Xrotation Yrotation
                  End Site
                  {
                    OFFSET 1.69225 -0.51767 -0.607171
                  }
                }
              }
            }
          }
        }
      }
    }
  }
  JOINT rButtock
  {
    OFFSET -8.77824 4.35084 1.2192
    CHANNELS 3 Zrotation Xrotation Yrotation
    JOINT rThigh
    {
      OFFSET 0 -1.70687 -2.19456
      CHANNELS 3 Zrotation Xrotation Yrotation
      JOINT rShin
      {
        OFFSET 0 -36.8199 0.73152
        CHANNELS 3 Zrotation Xrotation Yrotation
        JOINT rFoot
        {
          OFFSET 0.73152 -45.1104 -5.12064
          CHANNELS 3 Zrotation Xrotation Yrotation
          End Site
          {
            OFFSET -1.1221 -3.69964 12.103
          }
        }
      }
    }
  }
  JOINT lButtock
  {
    OFFSET 8.77824 4.35084 1.2192
    CHANNELS 3 Zrotation Xrotation Yrotation
    JOINT lThigh
    {
      OFFSET 0 -1.70687 -2.19456
      CHANNELS 3 Zrotation Xrotation Yrotation
      JOINT lShin
      {
        OFFSET 0 -36.8199 0.73152
        CHANNELS 3 Zrotation Xrotation Yrotation
        JOINT lFoot
        {
          OFFSET -0.73152 -45.1104 -5.12064
          CHANNELS 3 Zrotation Xrotation Yrotation
          End Site
          {
            OFFSET 1.1221 -3.69964 12.103
          }
        }
      }
    }
  }
}
MOTION
Frames:	5
Frame Time:	0.00833333
-32.1011 85.1932 211.987 0.0 0.0 0.0 0.572861 -0.00324248 0.0163891 0.158163 -0.00505494 0.0274048 -1.05701e-14 -7.95139e-16 1.2424e-17 -3.18459e-14 3.18055e-15 3.72721e-17 -0.0 0.0 0.0 -0.0 0.0 0.0 -5.26933e-15 -5.82377e-18 1.49089e-16 -1.08596e-13 -7.45443e-17 7.95139e-16 -1.91882e-12 5.68524e-13 2.54444e-14 -2.19245e-11 -5.97199e-13 -2.54444e-14 -5.17251e-11 -6.5262e-14 1.59028e-14 -8.93303e-11 -1.145e-13 3.02153e-14 -5.17194e-11 -6.24184e-14 9.54166e-15 7.73091 5.47488 0.417314 -5.17254e-11 -6.43068e-14 1.59028e-14 2.90554 0.965183 0.102902 -5.17087e-11 -6.45056e-14 1.59028e-14 10.2786 0.731801 0.0259123 -5.17262e-11 -6.63941e-14 2.54444e-14 2.22167 -0.733487 -0.20892 -5.26661e-15 -5.82377e-18 -1.49089e-16 -1.13317e-13 -3.04389e-16 -1.39149e-15 -1.90962e-12 -5.81843e-13 1.59028e-14 -2.19243e-11 5.34756e-13 3.18055e-15 -5.17052e-11 -1.01831e-13 1.27222e-14 -8.92905e-11 -1.74931e-13 3.89618e-14 -5.17138e-11 -9.81996e-14 2.8625e-14 -7.73091 5.47488 -0.417314 -5.17058e-11 -1.00983e-13 1.90833e-14 -2.90554 0.965183 -0.102902 -5.17188e-11 -1.01281e-13 1.82882e-14 -10.2786 0.731801 -0.0259123 -5.17011e-11 -1.00983e-13 1.27222e-14 -2.22167 -0.733487 0.20892 -2.03217e-16 0.0 -3.88251e-19 0.920461 -4.54482 -0.0776211 -0.00189517 2.68069 -0.00763491 -0.489908 1.86451 0.093655 2.03217e-16 0.0 3.88251e-19 -0.0477053 -2.33549 0.0218148 0.00803137 -1.3211 0.068746 0.481259 3.65688 -0.128856
-37.671 83.5632 203.974 -117.973 -84.8911 128.59 1.97694 -4.69305 1.04261 -0.505552 0.898212 0.259137 -8.98575 12.6093 -0.587711 20.3623 -10.5006 -0.143974 -0.0 0.0 0.0 -0.0 0.0 0.0 2.69007e-15 6.32562e-13 1.25848e-14 22.5094 15.9431 8.48852 0.204077 17.0313 -40.29 0.125984 -7.88741 -1.07094 -4.36368e-10 3.05349e-11 4.01888e-10 -7.60142e-10 4.45822e-11 6.80299e-10 -4.36359e-10 3.05346e-11 4.01878e-10 7.73091 5.47488 0.417314 -4.36368e-10 3.05352e-11 4.01887e-10 2.90554 0.965183 0.102902 -4.36354e-10 3.05357e-11 4.01887e-10 10.2786 0.731801 0.0259123 -4.3637e-10 3.05353e-11 4.01892e-10 2.22167 -0.733487 -0.20892 2.65089e-15 6.32563e-13 1.22718e-14 -20.2582 14.4989 -7.35396 -1.72874 15.4431 41.6192 -0.797362 -20.0534 2.23386 -2.08503e-11 4.41551e-11 -2.52392e-10 -2.09911e-11 7.51373e-11 -4.2734e-10 -2.08585e-11 4.41556e-11 -2.52377e-10 -7.73091 5.47488 -0.417314 -2.085e-11 4.41542e-11 -2.52387e-10 -2.90554 0.965183 -0.102902 -2.08629e-11 4.41538e-11 -2.52387e-10 -10.2786 0.731801 -0.0259123 -2.08486e-11 4.41538e-11 -2.52392e-10 -2.22167 -0.733487 0.20892 -2.03217e-16 0.0 -3.88251e-19 -4.63716 -4.92889 -0.0937275 0.000288807 3.36075 0.0124479 -0.526422 1.56579 0.0919522 2.03217e-16 0.0 3.88251e-19 1.38038 -6.29834 1.22076 0.00942041 2.75661 -0.00957619 0.440661 0.206211 -1.97973
-37.6758 83.5661 203.971 -118.535 -84.8748 129.129 3.64517 -9.64434 2.14823 -1.20206 1.84579 0.502973 -18.177 25.9148 -1.31716 41.8305 -21.6145 -0.299997 -0.0 0.0 0.0 -0.0 0.0 0.0 1.18517e-14 1.38864e-12 2.76124e-14 40.468 31.5303 19.7151 16.1546 8.08794 -81.8437 -0.0734388 -16.2132 -2.27228 -8.49875e-10 7.03951e-11 8.4342e-10 -1.48141e-09 1.04553e-10 1.42789e-09 -8.49864e-10 7.03913e-11 8.43405e-10 7.73091 5.47488 0.417314 -8.49876e-10 7.03946e-11 8.43418e-10 2.90554 0.965183 0.102902 -8.49864e-10 7.0396e-11 8.43418e-10 10.2786 0.731801 0.0259123 -8.49879e-10 7.03972e-11 8.43418e-10 2.22167 -0.733487 -0.20892 1.17672e-14 1.38864e-12 2.72832e-14 -37.2127 28.9252 -16.6993 -17.6031 5.40227 83.9147 0.567711 -41.2236 5.74869 1.4524e-11 9.395e-11 -5.35865e-10 5.6903e-11 1.5947e-10 -9.07307e-10 1.45163e-11 9.39472e-11 -5.35851e-10 -7.73091 5.47488 -0.417314 1.45253e-11 9.39473e-11 -5.35861e-10 -2.90554 0.965183 -0.102902 1.45125e-11 9.39468e-11 -5.35861e-10 -10.2786 0.731801 -0.0259123 1.45231e-11 9.39464e-11 -5.35864e-10 -2.22167 -0.733487 0.20892 -2.03217e-16 0.0 -3.88251e-19 -10.5126 -5.33491 -0.110779 0.00207946 4.07965 0.0337222 -0.565045 1.25001 0.0901559 2.03217e-16 0.0 3.88251e-19 3.07409 -10.4823 2.51444 0.0230763 7.06745 -0.0930429 0.15475 -3.4339 -3.94696
-37.6804 83.5687 203.972 -119.495 -84.8745 130.067 5.3021 -14.0542 3.17984 -1.85492 2.70456 0.723311 -26.0065 37.8096 -2.17804 60.9053 -31.5011 -0.498095 -0.0 0.0 0.0 -0.0 0.0 0.0 1.86089e-14 1.8977e-12 3.74562e-14 49.6048 42.8326 34.4046 22.3105 -22.2636 -100.682 -0.574879 -23.6276 -3.47397 -1.20565e-09 9.17353e-11 1.20563e-09 -2.10176e-09 1.33975e-10 2.04084e-09 -1.20564e-09 9.17286e-11 1.20561e-09 7.73091 5.47488 0.417314 -1.20565e-09 9.17342e-11 1.20563e-09 2.90554 0.965183 0.102902 -1.20565e-09 9.17361e-11 1.20563e-09 10.2786 0.731801 0.0259123 -1.20566e-09 9.17388e-11 1.20563e-09 2.22167 -0.733487 -0.20892 1.84859e-14 1.8977e-12 3.71137e-14 -47.0508 40.1741 -28.4628 -22.6171 -25.4015 105.363 6.14852 -59.6045 12.516 4.08594e-11 1.32669e-10 -7.57201e-10 1.15608e-10 2.25762e-10 -1.2821e-09 4.08522e-11 1.32663e-10 -7.57188e-10 -7.73091 5.47488 -0.417314 4.08616e-11 1.32665e-10 -7.572e-10 -2.90554 0.965183 -0.102902 4.08491e-11 1.32664e-10 -7.57199e-10 -10.2786 0.731801 -0.0259123 4.08565e-11 1.32663e-10 -7.57201e-10 -2.22167 -0.733487 0.20892 -2.03217e-16 0.0 -3.88251e-19 -15.753 -5.69703 -0.126011 0.0032219 4.72085 0.0527114 -0.599504 0.968346 0.0885553 2.03217e-16 0.0 3.88251e-19 4.7478 -14.1997 3.71007 0.0460185 10.912 -0.16921 -0.31131 -6.66173 -5.72071
-37.6598 83.5708 203.97 -120.32 -84.855 130.876 6.56359 -17.1277 3.94647 -2.38366 3.34149 0.884267 -31.1503 46.1951 -2.98884 74.1029 -38.3199 -0.75406 -0.0 0.0 0.0 -0.0 0.0 0.0 1.93548e-14 1.78919e-12 3.43401e-14 50.9755 47.8798 48.7699 24.4391 -48.8106 -101.864 -1.13794 -28.7961 -4.43055 -1.41711e-09 6.67758e-11 1.36955e-09 -2.46986e-09 8.70295e-11 2.31716e-09 -1.41709e-09 6.6767e-11 1.36953e-09 7.73091 5.47488 0.417314 -1.41711e-09 6.67742e-11 1.36955e-09 2.90554 0.965183 0.102902 -1.4171e-09 6.67759e-11 1.36955e-09 10.2786 0.731801 0.0259123 -1.41711e-09 6.67797e-11 1.36954e-09 2.22167 -0.733487 -0.20892 1.92107e-14 1.78919e-12 3.39922e-14 -49.441 46.3357 -40.2564 -20.9361 -52.5897 111.89 17.7176 -71.2934 24.5226 4.45977e-11 1.43697e-10 -8.23198e-10 1.26339e-10 2.46951e-10 -1.39394e-09 4.4591e-11 1.4369e-10 -8.23185e-10 -7.73091 5.47488 -0.417314 4.46004e-11 1.43692e-10 -8.23198e-10 -2.90554 0.965183 -0.102902 4.45887e-11 1.43692e-10 -8.23196e-10 -10.2786 0.731801 -0.0259123 4.45942e-11 1.43691e-10 -8.23198e-10 -2.22167 -0.733487 0.20892 -2.03217e-16 0.0 -3.88251e-19 -19.4056 -5.9494 -0.13664 0.00375877 5.16781 0.0659105 -0.623511 0.77198 0.0874378 2.03217e-16 0.0 3.88251e-19 6.00615 -16.7731 4.57848 0.0681695 13.5908 -0.223844 -0.751703 -8.89339 -6.96302
